<?xml version="1.0" encoding="UTF-8" standalone="no"?>
<!-- Created with Inkscape (http://www.inkscape.org/) -->

<svg
   xmlns:dc="http://purl.org/dc/elements/1.1/"
   xmlns:cc="http://creativecommons.org/ns#"
   xmlns:rdf="http://www.w3.org/1999/02/22-rdf-syntax-ns#"
   xmlns:svg="http://www.w3.org/2000/svg"
   xmlns="http://www.w3.org/2000/svg"
   xmlns:sodipodi="http://sodipodi.sourceforge.net/DTD/sodipodi-0.dtd"
   xmlns:inkscape="http://www.inkscape.org/namespaces/inkscape"
   width="130mm"
   height="145mm"
   viewBox="0 0 130 145"
   version="1.1"
   id="svg8"
   inkscape:version="0.92.4 (5da689c313, 2019-01-14)"
   sodipodi:docname="giresun-haritasi-cizim.svg">
  <defs
     id="defs2" />
  <sodipodi:namedview
     id="base"
     pagecolor="#ffffff"
     bordercolor="#666666"
     borderopacity="1.0"
     inkscape:pageopacity="0.0"
     inkscape:pageshadow="2"
     inkscape:zoom="0.7"
     inkscape:cx="173.02116"
     inkscape:cy="287.33843"
     inkscape:document-units="mm"
     inkscape:current-layer="layer1"
     showgrid="false"
     inkscape:window-width="1366"
     inkscape:window-height="705"
     inkscape:window-x="-8"
     inkscape:window-y="-8"
     inkscape:window-maximized="1" />
  <metadata
     id="metadata5">
    <rdf:RDF>
      <cc:Work
         rdf:about="">
        <dc:format>image/svg+xml</dc:format>
        <dc:type
           rdf:resource="http://purl.org/dc/dcmitype/StillImage" />
        <dc:title></dc:title>
      </cc:Work>
    </rdf:RDF>
  </metadata>
  <g
     inkscape:label="Layer 1"
     inkscape:groupmode="layer"
     id="layer1"
     transform="translate(0,-152.00001)">
    <g
       id="g7809"
       transform="matrix(1.0237693,0,0,0.99801208,246.10323,72.241339)">
      <path
         sodipodi:nodetypes="cscccccsscccccccscscscccscccccscccccccscssccccc"
         inkscape:connector-curvature="0"
         id="path21"
         d="m -221.49405,101.86979 c 0,0 15.9695,3.68527 19.0878,4.63021 3.1183,0.94494 3.30729,1.41741 4.06325,1.32291 0.75595,-0.0945 2.58474,-1.44316 3.62418,-1.06518 1.03943,0.37798 2.0927,1.04156 2.89591,0.99432 0.80319,-0.0472 27.11979,-4.18137 27.78125,-4.74833 0.66145,-0.56697 6.78695,-5.821101 7.62217,-6.389051 0.83522,-0.567946 2.87315,-1.570206 3.842,-1.937702 0.96885,-0.367496 9.2064,-3.579498 9.82061,-3.579498 0.61421,0 6.47284,0.944941 7.41778,0.968563 0.94494,0.02363 8.43359,-1.81901 10.20536,-2.527715 1.77176,-0.708705 4.20498,-1.866257 4.20498,-1.866257 0,0 -2.55134,10.347097 -2.66945,11.292038 -0.11812,0.944941 -1.08668,9.331292 -0.70871,13.300042 0.37798,3.96875 0.85045,8.12648 1.08668,8.92968 0.23624,0.8032 1.41741,4.44122 1.41741,4.44122 0,0 -1.88988,1.51191 -2.26785,1.51191 -0.37798,0 -9.26042,-0.37798 -9.59115,0.0472 -0.33073,0.42523 -9.30766,8.032 -9.68564,8.8352 -0.37798,0.8032 -6.47284,12.37872 -6.56733,12.94568 -0.0945,0.56697 -1.08669,5.43341 -1.22843,8.7407 -0.14174,3.30729 -0.23623,4.8192 0.37798,6.00037 0.61421,1.18118 2.07887,2.26786 3.68527,2.83482 1.6064,0.56697 8.96845,1.42467 10.7057,2.76102 1.73726,1.33635 7.81764,5.21176 7.81764,5.81311 0,0.60136 -0.46772,2.93997 -1.87089,4.27631 -1.40316,1.33635 -5.47902,4.27632 -8.28535,5.41221 -2.80633,1.1359 -6.17012,5.14825 -6.24099,5.45536 -0.0709,0.30711 -0.0472,15.26079 0.28348,15.68601 0.33073,0.42522 3.11831,3.96875 3.35454,4.67746 0.23624,0.7087 0,1.84263 0.14174,2.17336 0.14174,0.33073 0.51972,0.56697 0.28349,0.99219 -0.23624,0.42522 -0.66146,1.70089 -3.40179,2.4096 -2.74033,0.7087 -13.22916,1.70089 -14.31585,1.22842 -1.08668,-0.47247 -4.58296,-3.07106 -6.52009,-3.54353 -1.93712,-0.47247 -9.43206,-4.02235 -12.57247,-4.42325 -3.14042,-0.40091 -3.24065,-0.33409 -3.70837,-0.20046 -0.46772,0.13364 -7.08264,2.43884 -8.01809,2.33861 -0.93544,-0.10022 -20.3793,-13.49711 -20.3793,-13.96483 0,-0.46772 -0.46772,-15.368 -1.87088,-20.11203 -1.40317,-4.74404 -5.65885,-19.81475 -5.94233,-20.28722 -0.28348,-0.47247 -5.98457,-12.8542 -6.11821,-13.15488 -0.13364,-0.30068 -0.86863,-3.17383 -1.80407,-4.27631 -0.93544,-1.10249 -7.55036,-11.02487 -7.38332,-11.45918 0.16704,-0.43432 6.37591,-16.18329 6.61215,-16.70301 0.23623,-0.51971 4.81919,-9.78013 4.81919,-9.78013 z"
         style="fill:none;stroke:#000000;stroke-width:0.26458332px;stroke-linecap:butt;stroke-linejoin:miter;stroke-opacity:1" />
      <path
         sodipodi:nodetypes="ccccccccccccc"
         inkscape:connector-curvature="0"
         id="path23"
         d="m -232.91054,128.38828 2.4908,-6.24937 2.47225,-6.31424 1.10248,-2.93997 1.83748,-3.8754 3.51348,-7.13955 6.44231,1.42666 c 0,0 0.30068,5.51243 -0.0334,7.01582 -0.33409,1.50339 0.46772,2.77292 0.53454,4.71063 0.0668,1.9377 0.20045,2.13815 -0.40091,2.57247 -0.60135,0.43431 -4.20949,1.06908 -5.11152,1.80407 -0.90204,0.73499 -12.79434,9.0627 -12.79434,9.0627 z"
         style="fill:#ffe490;fill-opacity:1;stroke:#000000;stroke-width:0.26458332px;stroke-linecap:butt;stroke-linejoin:miter;stroke-opacity:1" />
      <path
         inkscape:connector-curvature="0"
         id="path25"
         d="m -215.05174,103.29641 7.96804,1.99879 3.47265,0.85045 2.71671,0.87407 1.86626,0.75595 0.44884,0.0945 0.4016,-0.0709 c 0,0 -1.01581,0.92132 -2.52771,3.70889 -1.51191,2.78758 -2.88207,3.99238 -3.09469,4.60659 -0.21261,0.61421 -1.32291,4.27585 -1.18117,7.4414 0.14174,3.16555 0.82682,12.16611 0.75595,12.59133 -0.0709,0.42523 -0.77046,1.69349 -0.9041,2.96303 -0.13364,1.26952 0,2.80632 -0.80181,3.84199 -0.80181,1.03567 -4.71063,6.08039 -6.34765,7.08265 -1.63702,1.00226 -7.18287,3.30746 -7.18287,3.30746 l -1.20553,-2.58398 -2.92932,-6.31929 -0.3071,-0.92132 -0.94494,-2.55134 -0.33073,-0.68508 -2.85845,-3.94513 -2.26786,-3.54352 -1.79538,-2.8112 -0.75637,-1.51967 2.84689,-1.98006 9.98109,-7.10723 0.37798,-0.23623 0.6992,-0.28208 2.33026,-0.67652 c 0,0 2.23003,-0.45102 2.15486,-1.31129 -0.0752,-0.86027 -0.0344,-2.36032 -0.1407,-2.67924 -0.10631,-0.31892 -0.55515,-2.56315 -0.54334,-2.92932 0.0118,-0.36616 -0.0118,-0.47246 0.0945,-1.07487 0.10631,-0.60239 0.14174,-2.09067 0.12993,-2.45684 -0.0118,-0.36616 -0.12503,-4.43201 -0.12503,-4.43201 z"
         style="fill:#ffff90;fill-opacity:1;stroke:#000000;stroke-width:0.26458332px;stroke-linecap:butt;stroke-linejoin:miter;stroke-opacity:1" />
      <path
         sodipodi:nodetypes="ccccccscccccccccccccccccccc"
         inkscape:connector-curvature="0"
         id="path27"
         d="m -198.17764,107.79927 c 0,0 2.71006,-1.2467 3.24459,-1.09636 0.53454,0.15033 2.38371,0.96054 2.66129,1.0137 0.27758,0.0532 0.38388,0.0472 0.38388,0.0472 0,0 4.63217,6.77457 5.40057,6.85809 0.7684,0.0835 2.48895,0.0334 2.97337,0.28398 0.48443,0.25056 1.05238,0.58465 0.78511,1.20271 -0.26727,0.61806 -0.3842,0.71829 -0.40091,0.90204 -0.0167,0.18374 -0.7684,0.93544 -0.90203,1.28623 -0.13364,0.35079 -2.52236,2.13816 -4.29302,4.2429 -1.77066,2.10475 -4.34313,5.77971 -5.64607,6.84879 -1.30294,1.06907 -3.4745,3.60813 -6.61492,5.11153 -3.14042,1.50339 -3.67495,1.60361 -3.67495,1.60361 l 0.0237,-1.29096 -0.29529,-3.33092 -0.12993,-2.62221 -0.2953,-4.84282 -0.0236,-1.73633 0.18898,-1.77176 0.44885,-2.4096 c 0,0 0.4016,-1.8072 0.64965,-2.18517 0.24805,-0.37798 1.21661,-1.63002 1.21661,-1.63002 l 1.15635,-1.64981 0.63476,-1.16931 0.86863,-1.50339 0.88533,-1.26953 z"
         style="fill:#00d068;fill-opacity:1;stroke:#000000;stroke-width:0.26458332px;stroke-linecap:butt;stroke-linejoin:miter;stroke-opacity:1" />
      <path
         inkscape:connector-curvature="0"
         id="path29"
         d="m -191.88788,107.76381 22.12162,-3.58207 c 0,0 0.11693,4.44335 -0.0668,4.64381 -0.18375,0.20045 -1.52009,1.73725 -1.80407,1.72054 -0.28397,-0.0167 -0.81851,-0.8018 -1.80407,-0.10022 -0.98555,0.70158 -2.08804,2.02122 -2.05463,3.00678 0.0334,0.98556 0.3842,1.78737 0.63476,2.28849 0.25057,0.50114 1.93771,3.40769 1.88759,3.64155 -0.0501,0.23386 -1.98781,3.20724 -1.87088,3.50791 0.11693,0.30068 0.36749,0.40091 0.36749,0.58466 0,0.18374 0.40091,2.62258 0.66818,3.44109 0.26727,0.81852 0.3842,1.41987 0.3842,1.41987 0,0 -7.46684,-0.50113 -8.90342,-0.95215 -1.43657,-0.45101 -2.00452,-1.25282 -2.65599,-3.05689 -0.65147,-1.80407 -0.59058,-2.29472 -0.95674,-2.93256 -0.36617,-0.63783 -0.55515,-0.76776 -0.55515,-0.76776 l 2.24423,-2.05525 0.30711,-0.44885 0.63783,-0.85044 0.62792,-1.2639 c 0,0 0.10441,-0.49605 -0.22632,-0.73229 -0.33073,-0.23623 -0.73233,-0.44884 -0.73233,-0.44884 l -0.88588,-0.10631 -1.67727,-0.0591 c 0,0 -0.4016,0.0236 -0.75595,-0.37797 -0.35435,-0.4016 -2.55134,-3.1065 -2.55134,-3.1065 z"
         style="fill:#a0ffff;fill-opacity:1;stroke:#000000;stroke-width:0.26458332px;stroke-linecap:butt;stroke-linejoin:miter;stroke-opacity:1" />
      <path
         sodipodi:nodetypes="ccccscccscscccsscccc"
         inkscape:connector-curvature="0"
         id="path31"
         d="m -169.76626,104.18174 0.0167,4.44335 c 0,0 0.0501,0.45102 0.30067,0.81852 0.25057,0.36749 3.51734,4.35605 3.61183,7.16725 0.0945,2.8112 -0.25986,3.02381 0.51972,4.08687 0.77958,1.06306 0.8032,1.48828 0.82682,1.65365 0.0236,0.16536 0.0709,0.21261 0.92132,0.28348 0.85045,0.0709 3.73252,-0.28348 4.65383,0.75595 0.92132,1.03943 1.55915,3.00018 2.07887,3.09468 0.51972,0.0945 1.41741,-0.0473 1.88988,0.23623 0.47247,0.28349 0.63784,0.0945 0.63784,-0.21261 0,-0.3071 0.3071,-0.7087 -0.82683,-3.42541 -1.13392,-2.7167 -2.17336,-4.93731 -2.12611,-6.2366 0.0472,-1.2993 0.42522,-0.61421 0.25986,-2.76395 -0.16537,-2.14974 -0.28349,-3.75614 -0.75596,-4.016 -0.47247,-0.25986 -1.53552,0.16536 -1.86625,-1.51191 -0.33073,-1.67727 1.00543,-10.13305 1.00543,-10.13305 l -5.13955,4.3571 c 0,0 -0.27849,0.31667 -1.52296,0.57558 -1.24447,0.25892 -4.48511,0.82687 -4.48511,0.82687 z"
         style="fill:#00f0f0;fill-opacity:1;stroke:#000000;stroke-width:0.26458332px;stroke-linecap:butt;stroke-linejoin:miter;stroke-opacity:1" />
      <path
         sodipodi:nodetypes="ccscccccccccccccccccsccc"
         inkscape:connector-curvature="0"
         id="path35"
         d="m -147.85956,120.2725 c 0,0 1.41741,-0.73232 1.93713,-2.90569 0.51972,-2.17336 1.76393,-7.62252 1.76393,-9.49341 0,-1.87089 -0.30068,-9.855566 -0.20045,-11.559408 0.10022,-1.703843 0.86862,-5.011304 0.86862,-5.011304 l -7.51695,2.739512 -3.00678,1.236122 -2.53906,1.336347 -2.06552,1.80752 -0.58021,4.085441 -0.23623,2.03162 -0.23623,2.33872 v 1.2993 l 0.1063,0.56696 0.2008,0.50791 0.23624,0.35435 0.23623,0.2008 0.24805,0.10631 0.24804,0.0472 0.34255,0.0236 c 0,0 4.52346,-0.45734 5.47561,0.87901 0.95215,1.33635 1.82077,4.96119 2.03793,5.41221 0.21716,0.45101 1.66419,2.80382 1.66419,2.80382 0.31968,0.44245 0.53867,0.97022 1.01581,1.19306 z"
         style="fill:#a0e0ff;fill-opacity:1;stroke:#000000;stroke-width:0.26458332px;stroke-linecap:butt;stroke-linejoin:miter;stroke-opacity:1" />
      <path
         sodipodi:nodetypes="csscccccccccccc"
         inkscape:connector-curvature="0"
         id="path37"
         d="m -130.27307,91.051283 c 0,0 -0.22314,4.865381 0.15484,6.755263 0.37798,1.889881 2.50409,8.528084 2.50409,8.764324 0,0.23623 3.25036,3.39057 3.25036,3.39057 l 0.025,-2.39707 0.0668,-1.17766 0.2013,-2.67429 0.3071,-3.33091 0.18899,-1.630023 0.42522,-1.866257 1.13393,-4.819198 1.08668,-4.393972 -3.68526,1.653646 -0.94494,0.330729 z"
         style="fill:#ffc000;fill-opacity:1;stroke:#000000;stroke-width:0.26458332px;stroke-linecap:butt;stroke-linejoin:miter;stroke-opacity:1" />
      <path
         inkscape:connector-curvature="0"
         id="path39"
         d="m -130.27314,91.051281 -0.0814,3.967692 0.0945,2.007997 0.35435,1.748139 2.26786,7.795761 3.27398,3.39057 0.01,1.94834 0.18899,1.70089 c 0,0 -5.78776,-2.74032 -7.51227,-3.70889 -1.72452,-0.96856 -3.49628,-3.09468 -6.89807,-3.59077 -3.40178,-0.49609 -5.59877,1.13393 -5.59877,1.13393 l -0.0236,-2.2088 -0.10631,-2.76395 -0.0591,-3.720703 -0.004,-2.220339 0.10858,-1.236122 0.76839,-3.992338 c 0,0 0.39091,-0.228843 0.72164,-0.217032 0.33073,0.01183 7.06343,1.027623 7.51228,1.004001 0.44884,-0.02363 4.98328,-1.038376 4.98328,-1.038376 z"
         style="fill:#a0c0ff;fill-opacity:1;stroke:#000000;stroke-width:0.26458332px;stroke-linecap:butt;stroke-linejoin:miter;stroke-opacity:1" />
      <path
         inkscape:connector-curvature="0"
         id="path41"
         d="m -147.85956,120.2725 c 0,0 0.7778,-0.55572 0.97825,-0.82299 0.20046,-0.26727 0.43432,-0.71829 0.43432,-0.71829 0,0 3.69011,2.4626 4.51693,2.4626 0.82683,0 2.17336,0.96857 3.99237,2.17336 1.81901,1.2048 4.32311,3.77977 4.32311,3.77977 l -6.59096,5.835 -2.90569,2.72852 -0.25986,0.34254 c 0,0 -1.82308,-1.90368 -2.02353,-2.7723 -0.20045,-0.86863 -2.46494,-13.00821 -2.46494,-13.00821 z"
         style="fill:#b3ff40;fill-opacity:1;stroke:#000000;stroke-width:0.26458332px;stroke-linecap:butt;stroke-linejoin:miter;stroke-opacity:1" />
      <path
         inkscape:connector-curvature="0"
         id="path43"
         d="m -146.44699,118.73122 c 0,0 3.62484,2.32191 4.19279,2.38872 0.56794,0.0668 0.7851,0.11694 1.05237,0.23387 0.26727,0.11693 1.36975,0.7684 1.36975,0.7684 l 1.95441,1.30293 1.93771,1.5034 2.32538,2.21841 c 0,0 0.61458,-0.14708 1.21594,-0.16378 0.60136,-0.0167 8.38558,0.21716 8.4691,0.16704 0.0835,-0.0501 2.12671,-1.51517 2.12671,-1.51517 l -1.02422,-3.15369 -0.39255,-1.29459 -0.2605,-1.42216 -0.68476,-6.15393 -6.75664,-3.30729 -1.22843,-0.7087 -2.90569,-2.06706 -1.67727,-0.74414 c 0,0 -1.68908,-0.70871 -3.48446,-0.57878 -1.79539,0.12993 -2.989,0.7249 -2.989,0.7249 l -0.96762,0.51534 c 0,0 -0.0121,1.47647 -0.10663,2.14974 -0.0945,0.67327 -0.64964,3.30729 -0.64964,3.30729 l -0.56697,2.59859 -0.3071,1.48828 -0.23624,0.89769 z"
         style="fill:#70a0ff;fill-opacity:1;stroke:#000000;stroke-width:0.26458332px;stroke-linecap:butt;stroke-linejoin:miter;stroke-opacity:1" />
      <path
         inkscape:connector-curvature="0"
         id="path45"
         d="m -181.0584,209.20196 c 0,0 2.57247,-4.57699 5.09483,-5.81311 2.52235,-1.23613 2.93996,-1.43658 3.80859,-2.53906 0.86862,-1.10249 4.66428,-2.59607 5.70372,-2.64332 1.03943,-0.0472 7.51227,0.18899 8.90606,0.44885 1.39379,0.25986 3.59077,-0.33073 4.98456,-0.42523 1.39379,-0.0945 7.60677,0.73233 7.60677,0.73233 l 0.0771,3.70814 0.0668,2.13815 c 0,0 0.0501,0.93545 0.0835,1.05238 0.0334,0.11693 0.65147,0.86862 0.65147,0.86862 l 2.47224,3.35758 c 0,0 0.3675,0.58465 0.38421,1.20271 0.0167,0.61806 0,1.21942 0.0501,1.45328 0.0501,0.23386 0.50113,0.51783 0.25056,1.08578 -0.25056,0.56795 -0.93544,1.38646 -1.31964,1.57021 -0.3842,0.18375 -0.71829,0.61806 -5.19505,1.35305 -4.47677,0.73499 -10.33999,0.81851 -10.80771,0.7684 -0.46772,-0.0501 -5.38799,-3.15577 -5.9963,-3.33294 -0.60831,-0.17718 -2.15542,-0.74292 -2.8236,-0.99348 -0.66817,-0.25057 -2.60587,-1.03567 -2.60587,-1.03567 l -3.57699,-1.40808 -2.42141,-0.83863 -1.57097,-0.4016 -1.80719,-0.24805 z"
         style="fill:#ff9470;fill-opacity:1;stroke:#000000;stroke-width:0.26458332px;stroke-linecap:butt;stroke-linejoin:miter;stroke-opacity:1" />
      <path
         inkscape:connector-curvature="0"
         id="path47"
         d="m -151.17432,158.58779 c 0,0 -8.4357,-1.72055 -8.92013,-2.3219 -0.48442,-0.60136 -1.03567,-2.95667 -3.64154,-4.29302 -2.60588,-1.33635 -3.60814,-0.13364 -3.80859,-1.23612 -0.20045,-1.10249 -1.83748,-4.64381 -1.33635,-6.01357 0.50113,-1.36975 0.94139,-2.76429 1.5556,-3.33126 0.61421,-0.56696 1.5119,-1.20479 2.22061,-2.26785 0.7087,-1.06306 1.16827,-2.65283 2.07031,-3.25419 0.90203,-0.60135 1.5368,-1.43657 2.7061,-1.36975 1.16931,0.0668 2.80633,0.30067 4.00905,-0.53454 1.20271,-0.83522 3.34087,-3.60814 3.04019,-4.40995 -0.30068,-0.80181 -1.20688,-2.60949 -1.15964,-2.73942 0.0472,-0.12993 0.25986,-0.42523 0.12993,-1.15755 -0.12993,-0.73233 -0.61421,-2.12612 -0.61421,-2.12612 l -1.8072,-4.24042 -0.48428,-1.67727 -0.0827,-0.90951 0.14174,-0.60239 0.16536,-0.4961 0.0236,-1.41741 -0.22442,-2.48047 c 0,0 -0.17718,-1.15755 -0.33073,-1.35835 -0.15356,-0.2008 -0.53153,-0.36623 -0.53153,-0.36623 0,0 2.60246,-0.1733 3.5045,0.0272 0.90203,0.20045 1.32799,0.23386 1.7122,0.61806 0.38419,0.3842 1.01061,1.7289 1.01061,1.7289 l 0.65147,1.84583 0.60135,1.99616 1.02732,1.72891 0.78511,1.30293 0.40925,0.68488 0.49174,0.35527 0.50217,2.48447 1.19436,6.5314 0.7684,4.00904 0.23386,0.56795 1.78967,2.18765 -3.12601,6.13111 -3.30747,6.44788 -0.16929,0.46119 -0.23624,1.34654 -0.64964,4.25223 -0.18899,1.53553 z"
         style="fill:#ffa0d0;fill-opacity:1;stroke:#000000;stroke-width:0.26458332px;stroke-linecap:butt;stroke-linejoin:miter;stroke-opacity:1" />
      <path
         inkscape:connector-curvature="0"
         id="path49"
         d="m -177.13288,141.01482 c 0,0 1.9043,0.36749 2.43884,0.36749 0.53454,0 3.74177,2.73952 4.27631,3.0402 0.53454,0.30067 1.40316,0.66817 1.40316,0.66817 l 0.61806,-1.67043 0.61807,-1.48669 0.35079,-0.45102 c 0,0 1.38646,-1.20271 1.5368,-1.36975 0.15034,-0.16705 0.98555,-1.28624 0.98555,-1.28624 l 0.7684,-1.48669 c 0,0 0.55125,-1.03566 0.70159,-1.1526 0.15034,-0.11693 0.68487,-0.55124 0.96885,-0.73499 0.28397,-0.18375 0.93544,-0.7851 1.38646,-0.86862 0.45102,-0.0835 0.85192,-0.13364 1.88759,0 1.03567,0.13363 2.3219,-0.26727 2.58917,-0.41761 0.26727,-0.15034 0.96885,-0.7684 0.96885,-0.7684 l 0.85193,-0.90204 0.81851,-1.11919 0.58465,-1.13589 0.13364,-0.45102 v -0.18375 l -1.24448,-2.74786 c 0,0 -0.58465,-0.15034 -0.85192,-0.25057 -0.26727,-0.10022 -1.35305,0.0418 -1.5368,-0.11693 -0.18375,-0.15869 -1.07743,-1.40316 -1.3614,-2.09639 -0.28398,-0.69323 -0.96886,-1.42823 -1.62032,-1.54516 -0.65147,-0.11693 -1.51175,-0.21715 -1.51175,-0.21715 l -1.37811,0.0167 -1.4684,-0.0785 -0.21852,-0.0886 -0.12402,-0.33664 -0.0532,-0.28939 -0.1063,-0.25986 -0.88588,-1.36425 -0.10631,-0.23033 -0.13879,-0.80616 0.0738,-2.07591 -0.15356,-1.38198 -0.5079,-1.45284 -0.62602,-1.34654 -1.16937,-1.83082 -0.93313,-1.27567 -0.28348,-0.4016 -0.29811,-0.80423 -0.42241,0.60342 -0.8032,0.85045 -0.55515,0.44885 -0.17718,0.0354 -0.27166,-0.15356 -0.4961,-0.25986 -0.27167,-0.0236 -0.37798,0.0945 -0.3071,0.17718 -0.85045,0.77957 -0.53153,0.6024 -0.37797,0.56697 -0.21261,0.42522 -0.0945,0.64965 0.0472,0.8032 0.56696,1.54734 0.82683,1.45284 1.004,1.87217 c 0,0 0.12402,0.23033 0.0236,0.46065 -0.1004,0.23033 -0.86226,1.45285 -0.86226,1.45285 l -0.69689,1.22252 -0.23033,0.44884 c 0,0 -0.0886,0.24805 0.0177,0.37798 0.10631,0.12993 0.31301,0.27758 0.31892,0.40751 0.006,0.12992 0.13583,0.92131 0.13583,0.92131 l 0.24805,1.45875 0.3012,1.14574 c 0,0 0.45719,1.45976 0.40707,2.29498 -0.0501,0.83522 -0.20045,2.02122 0,2.97337 0.20045,0.95215 -0.28397,2.55577 -0.88533,3.70837 -0.60136,1.1526 -2.85644,5.04471 -2.85644,5.04471 z"
         style="fill:#d0a0ff;fill-opacity:1;stroke:#000000;stroke-width:0.26458332px;stroke-linecap:butt;stroke-linejoin:miter;stroke-opacity:1" />
      <path
         sodipodi:nodetypes="ccsccccscsccccccccccccccccccccccccccccccccccccccccccccccc"
         inkscape:connector-curvature="0"
         id="path51"
         d="m -219.46169,153.34261 1.93771,4.1761 c 0,0 0.86862,-0.33408 1.33634,-0.33408 0.46773,0 0.20045,-0.30068 0.70159,-0.33409 0.50113,-0.0334 10.89123,7.11605 11.42577,7.18287 0.53454,0.0668 12.09394,0.86862 13.22984,-0.13364 1.13589,-1.00226 5.11153,-9.78874 6.74855,-9.85556 1.63703,-0.0668 1.77066,0.16704 2.40543,0.73499 0.63477,0.56795 2.27179,1.97111 2.27179,1.97111 0,0 1.57021,-2.47224 1.57021,-3.30746 0,-0.83521 0.70158,-12.42803 0.70158,-12.42803 l 1.20272,-2.02122 1.01896,-1.78737 0.88533,-1.67043 0.45102,-1.40317 0.26727,-1.23612 -0.11693,-1.00226 -0.0835,-1.05238 0.11693,-1.45327 0.0167,-0.48443 -0.0501,-0.56795 -4.42667,-0.35079 -3.75847,-0.4009 -1.21942,-0.40091 -0.58465,-0.31738 -0.73499,-0.73499 -0.58465,-1.11919 -0.56795,-1.70385 -0.40091,-1.48668 -0.31738,-0.56795 -0.4762,-0.62672 -1.51162,1.49535 -2.20497,2.78962 -1.97111,2.53906 -1.05238,1.26953 -0.71828,0.65147 -1.43658,1.33635 -1.97111,1.73725 -1.52009,1.05237 -1.15261,0.71829 -2.55576,1.21942 -1.67043,0.66812 c 0,0 -0.0919,0.47195 -0.16705,0.66823 -0.0752,0.19627 -0.55124,1.31546 -0.5763,1.47833 -0.0251,0.16287 -0.11693,0.75587 -0.11693,0.75587 l -0.0919,1.34053 -0.11693,1.05237 -0.15034,0.7684 -0.28398,0.53454 -0.83521,1.11919 -2.6727,3.25735 -1.28623,1.41987 -0.7684,0.73499 -0.58465,0.55124 -0.68488,0.45102 -1.1526,0.58465 z"
         style="fill:#ff80c0;fill-opacity:1;stroke:#000000;stroke-width:0.26458332px;stroke-linecap:butt;stroke-linejoin:miter;stroke-opacity:1" />
      <text
         id="text55"
         y="116.00046"
         x="-226.84248"
         style="font-style:normal;font-weight:normal;font-size:3.42338204px;line-height:1.25;font-family:sans-serif;letter-spacing:0px;word-spacing:0px;fill:#000000;fill-opacity:1;stroke:none;stroke-width:0.08558454"
         xml:space="preserve"><tspan
           style="stroke-width:0.08558454"
           y="116.00046"
           x="-226.84248"
           id="tspan53"
           sodipodi:role="line">Piraziz</tspan></text>
      <text
         xml:space="preserve"
         style="font-style:normal;font-weight:normal;font-size:3.42338204px;line-height:1.25;font-family:sans-serif;letter-spacing:0px;word-spacing:0px;fill:#000000;fill-opacity:1;stroke:none;stroke-width:0.08558454"
         x="-224.43706"
         y="133.37299"
         id="text59"><tspan
           sodipodi:role="line"
           id="tspan57"
           x="-224.43706"
           y="133.37299"
           style="stroke-width:0.08558454">Bulancak</tspan></text>
      <text
         id="text63"
         y="118.85602"
         x="-201.18993"
         style="font-style:normal;font-weight:normal;font-size:3.42338204px;line-height:1.25;font-family:sans-serif;letter-spacing:0px;word-spacing:0px;fill:#000000;fill-opacity:1;stroke:none;stroke-width:0.08558454"
         xml:space="preserve"><tspan
           style="stroke-width:0.08558454"
           y="118.85602"
           x="-201.18993"
           id="tspan61"
           sodipodi:role="line">Merkez</tspan></text>
      <text
         xml:space="preserve"
         style="font-style:normal;font-weight:normal;font-size:3.42338204px;line-height:1.25;font-family:sans-serif;letter-spacing:0px;word-spacing:0px;fill:#000000;fill-opacity:1;stroke:none;stroke-width:0.08558454"
         x="-186.25919"
         y="111.05656"
         id="text67"><tspan
           sodipodi:role="line"
           id="tspan65"
           x="-186.25919"
           y="111.05656"
           style="stroke-width:0.08558454">Keşap</tspan></text>
      <text
         id="text71"
         y="112.83506"
         x="-166.53517"
         style="font-style:normal;font-weight:normal;font-size:2.67150283px;line-height:1.25;font-family:sans-serif;letter-spacing:0px;word-spacing:0px;fill:#000000;fill-opacity:1;stroke:none;stroke-width:0.06678757"
         xml:space="preserve"><tspan
           style="stroke-width:0.06678757"
           y="112.83506"
           x="-166.53517"
           id="tspan69"
           sodipodi:role="line">Espiye</tspan></text>
      <text
         id="text75"
         y="104.11124"
         x="-157.29675"
         style="font-style:normal;font-weight:normal;font-size:3.42338204px;line-height:1.25;font-family:sans-serif;letter-spacing:0px;word-spacing:0px;fill:#000000;fill-opacity:1;stroke:none;stroke-width:0.08558454"
         xml:space="preserve"><tspan
           style="stroke-width:0.08558454"
           y="104.11124"
           x="-157.29675"
           id="tspan73"
           sodipodi:role="line">Görele</tspan></text>
      <text
         xml:space="preserve"
         style="font-style:normal;font-weight:normal;font-size:3.42338204px;line-height:1.25;font-family:sans-serif;letter-spacing:0px;word-spacing:0px;fill:#000000;fill-opacity:1;stroke:none;stroke-width:0.08558454"
         x="-143.26511"
         y="104.17805"
         id="text79"><tspan
           sodipodi:role="line"
           id="tspan77"
           x="-143.26511"
           y="104.17805"
           style="stroke-width:0.08558454">Tirebolu</tspan></text>
      <text
         xml:space="preserve"
         style="font-style:normal;font-weight:normal;font-size:1.75979626px;line-height:1.25;font-family:sans-serif;letter-spacing:0px;word-spacing:0px;fill:#000000;fill-opacity:1;stroke:none;stroke-width:0.0439949"
         x="-129.47185"
         y="94.281586"
         id="text83"><tspan
           sodipodi:role="line"
           id="tspan81"
           x="-129.47185"
           y="94.281586"
           style="stroke-width:0.0439949">Eynesil</tspan></text>
      <text
         id="text7722"
         y="117.14062"
         x="-141.46103"
         style="font-style:normal;font-weight:normal;font-size:3.42338204px;line-height:1.25;font-family:sans-serif;letter-spacing:0px;word-spacing:0px;fill:#000000;fill-opacity:1;stroke:none;stroke-width:0.08558454"
         xml:space="preserve"><tspan
           style="stroke-width:0.08558454"
           y="117.14062"
           x="-141.46103"
           id="tspan7720"
           sodipodi:role="line">Çanakçı</tspan></text>
      <text
         xml:space="preserve"
         style="font-style:normal;font-weight:normal;font-size:1.73139107px;line-height:1.25;font-family:sans-serif;letter-spacing:0px;word-spacing:0px;fill:#000000;fill-opacity:1;stroke:none;stroke-width:0.04328478"
         x="-145.40578"
         y="127.71459"
         id="text7726"><tspan
           sodipodi:role="line"
           id="tspan7724"
           x="-145.40578"
           y="127.71459"
           style="stroke-width:0.04328478">Doğankent</tspan></text>
      <text
         xml:space="preserve"
         style="font-style:normal;font-weight:normal;font-size:3.42338204px;line-height:1.25;font-family:sans-serif;letter-spacing:0px;word-spacing:0px;fill:#000000;fill-opacity:1;stroke:none;stroke-width:0.08558454"
         x="-161.16304"
         y="143.12648"
         id="text7734"><tspan
           sodipodi:role="line"
           id="tspan7732"
           x="-161.16304"
           y="143.12648"
           style="stroke-width:0.08558454">Güce</tspan></text>
      <text
         id="text7738"
         y="130.93675"
         x="-171.55739"
         style="font-style:normal;font-weight:normal;font-size:3.42338204px;line-height:1.25;font-family:sans-serif;letter-spacing:0px;word-spacing:0px;fill:#000000;fill-opacity:1;stroke:none;stroke-width:0.08558454"
         xml:space="preserve"><tspan
           style="stroke-width:0.08558454"
           y="130.93675"
           x="-171.55739"
           id="tspan7736"
           sodipodi:role="line">Yağlıdere</tspan></text>
      <text
         xml:space="preserve"
         style="font-style:normal;font-weight:normal;font-size:3.42338204px;line-height:1.25;font-family:sans-serif;letter-spacing:0px;word-spacing:0px;fill:#000000;fill-opacity:1;stroke:none;stroke-width:0.08558454"
         x="-197.7498"
         y="145.23567"
         id="text7742"><tspan
           sodipodi:role="line"
           id="tspan7740"
           x="-197.7498"
           y="145.23567"
           style="stroke-width:0.08558454">Dereli</tspan></text>
      <text
         id="text7746"
         y="207.88522"
         x="-165.05487"
         style="font-style:normal;font-weight:normal;font-size:3.42338204px;line-height:1.25;font-family:sans-serif;letter-spacing:0px;word-spacing:0px;fill:#000000;fill-opacity:1;stroke:none;stroke-width:0.08558454"
         xml:space="preserve"><tspan
           style="stroke-width:0.08558454"
           y="207.88522"
           x="-165.05487"
           id="tspan7744"
           sodipodi:role="line">Çamoluk</tspan></text>
      <path
         inkscape:connector-curvature="0"
         id="path7748"
         d="m -217.52398,157.51871 c 0,0 1.08578,-0.3842 1.28623,-0.36749 0.20045,0.0167 0.3842,-0.10023 0.50113,-0.23386 0.11693,-0.13364 0.3842,-0.0501 0.55124,0.0501 0.16705,0.10023 4.10927,2.58917 4.10927,2.58917 0,0 6.61462,4.34849 6.79179,4.41936 0.17718,0.0709 3.24824,0.24805 3.24824,0.24805 0,0 5.49246,0.18899 6.39015,0.16536 0.8977,-0.0236 3.05925,-0.1063 3.51991,-0.34254 0.46066,-0.23623 0.55515,-0.4016 0.55515,-0.4016 l 1.39416,-2.25115 0.99391,-1.77066 0.61212,-1.09858 1.16346,-1.96076 1.1103,-1.57096 0.73233,-0.76776 0.32482,-0.16537 0.46066,-0.0413 0.76777,0.0354 0.47837,0.1004 0.32482,0.17717 0.77958,0.65556 2.0239,1.76305 c 0,0 -0.50113,2.32191 -0.43431,3.4244 0.0668,1.10248 0.75169,1.5702 1.20271,1.9377 0.45102,0.36749 2.35531,0.0835 3.20724,0.53454 0.85192,0.45101 3.16638,2.36849 3.56798,4.11663 0.4016,1.74814 0.94494,4.98456 1.03944,6.00037 0.0945,1.01581 0.28348,4.08687 1.06306,5.2208 0.77957,1.13392 3.33316,3.5047 3.36657,4.22299 0.0334,0.71828 0.18374,1.63702 -0.21716,2.40542 -0.4009,0.7684 -2.62258,2.88985 -3.22394,3.39098 -0.60135,0.50113 -2.45554,1.11919 -3.34087,2.07134 -0.88533,0.95215 -1.23612,1.23612 -1.23612,1.921 0,0.68488 -0.0668,3.22394 0.31738,4.46006 0.3842,1.23612 2.6894,3.79189 2.6894,3.79189 0,0 -0.37584,0.20045 -0.54289,0.37585 -0.16704,0.17539 -0.52619,0.6097 -0.80181,0.88533 -0.27562,0.27562 -0.75169,0.58465 -0.75169,0.58465 0,0 -0.95995,0.56524 -1.23162,0.69517 -0.27167,0.12993 -1.51191,0.67327 -1.98438,1.07487 -0.47247,0.4016 -1.09849,0.85045 -1.78357,1.65365 -0.68509,0.8032 -1.77177,2.42141 -1.77177,2.42141 l -0.78738,1.2626 c 0,0 -0.26727,0 -2.05463,0.61806 -1.78737,0.61806 -3.52462,1.13589 -3.52462,1.13589 l -1.36976,0.3842 -0.93544,0.23387 -0.24639,0.0459 c 0,0 -0.21716,0.0167 -0.43014,-0.0835 -0.21298,-0.10023 -2.94767,-1.77802 -2.94767,-1.77802 l -3.28367,-2.17336 -5.55357,-3.84537 -3.39098,-2.3052 -3.92553,-2.88986 c 0,0 -1.10248,-0.7684 -1.11919,-1.10248 -0.0167,-0.33409 -0.15033,-4.47677 -0.15033,-4.47677 l -0.0835,-1.60361 -0.18374,-2.85645 -0.28398,-3.82529 -0.28397,-2.47224 -0.3842,-2.62259 -0.28398,-1.28623 -0.3842,-1.45328 -1.05237,-3.54132 -0.80181,-2.92326 -0.95214,-3.30746 z"
         style="fill:#a0ffa0;fill-opacity:1;stroke:#000000;stroke-width:0.26458332px;stroke-linecap:butt;stroke-linejoin:miter;stroke-opacity:1" />
      <text
         xml:space="preserve"
         style="font-style:normal;font-weight:normal;font-size:3.42338204px;line-height:1.25;font-family:sans-serif;letter-spacing:0px;word-spacing:0px;fill:#000000;fill-opacity:1;stroke:none;stroke-width:0.08558454"
         x="-202.85249"
         y="183.31677"
         id="text7752"><tspan
           sodipodi:role="line"
           id="tspan7750"
           x="-202.85249"
           y="183.31677"
           style="stroke-width:0.08558454">Şebinkarahisar</tspan></text>
      <path
         inkscape:connector-curvature="0"
         id="path7754"
         d="m -151.17432,158.58779 c 0,0 -0.15035,2.92326 0,3.64155 0.15034,0.71829 0.11693,1.01896 0.61805,1.75395 0.50114,0.735 0.76841,1.03567 1.10249,1.26953 0.33409,0.23387 1.36976,1.33635 4.89438,1.87089 3.52461,0.53454 6.5481,1.38646 6.5481,1.38646 l 1.32566,0.58032 2.50409,1.72452 3.68527,2.57496 1.73633,1.38198 c 0,0 0.28348,0.31892 0.17718,0.81501 -0.10631,0.49609 -0.53153,1.83082 -0.53153,1.83082 l -0.48429,0.94494 -0.46065,0.68508 -0.95675,0.88589 -1.05125,0.85044 -1.6064,1.16937 -1.87807,1.21661 -1.41741,0.79138 -0.89769,0.43704 -1.26386,0.57877 -0.83864,0.47247 -1.12211,0.77958 -1.0985,0.95675 -1.16936,1.13393 -1.4056,1.6064 c 0,0 -0.23624,0.30711 -0.23624,0.6024 0,0.29529 0.0118,3.14193 0.0118,3.14193 l 0.0118,2.82301 0.0236,2.46865 -4.39397,-0.53153 -2.64583,-0.23623 h -0.75595 l -2.14974,0.35435 -1.84264,0.18899 -1.52371,-0.16536 -2.04344,-0.16537 -5.04362,-0.24805 -1.14574,0.0118 -0.77957,0.17717 -2.16156,0.79139 -0.54334,0.22442 -0.67327,0.35435 -0.74704,0.53005 -1.96966,-2.43174 -0.83863,-1.63002 -0.15356,-2.44503 -0.0827,-1.9017 0.15355,-0.53153 1.24024,-1.42922 0.72051,-0.48428 2.1025,-1.13393 0.62602,-0.46066 1.85444,-1.81901 1.01582,-1.13392 0.36616,-0.77958 0.0472,-1.08668 -0.0591,-0.85045 -0.14174,-0.29529 -0.94494,-1.27567 -1.58278,-1.68908 -0.86226,-1.16937 -0.42522,-1.37016 -0.2008,-1.03944 -0.28348,-2.29148 -0.27167,-2.26785 -0.4016,-2.03163 -0.41341,-2.13792 -0.34254,-0.76777 -0.37798,-0.56696 -0.59059,-0.74414 -0.62602,-0.63784 -1.02762,-0.87407 -0.54334,-0.34254 -0.54334,-0.2008 -1.71271,-0.15355 -0.73233,-0.0709 -0.67327,-0.44885 -0.55515,-0.72052 -0.22443,-0.76776 0.0827,-1.09849 0.37025,-2.41832 0.50382,-0.80629 0.38979,-0.72052 0.53153,-1.07487 0.12992,-0.59059 0.0591,-0.89769 0.14174,-3.04743 0.14174,-2.07887 0.17718,-3.53172 0.19701,-2.9875 1.88186,0.34167 0.57878,0.0236 0.31891,0.11811 3.24824,2.39779 0.6024,0.48428 0.87407,0.43704 0.61405,0.27334 0.0592,0.7779 0.17717,0.85045 0.42523,1.52372 0.53152,1.55915 0.27168,0.9095 0.1063,0.33073 0.18899,0.18899 0.41341,0.0591 0.90951,-0.0118 1.12211,0.21261 1.03944,0.43704 1.03943,0.69689 1.08668,1.01581 0.63784,0.92132 0.44884,0.89769 0.30711,0.59059 0.23623,0.29529 0.41342,0.2008 0.77957,0.24805 2.37417,0.61421 z"
         style="fill:#ffa0a0;fill-opacity:1;stroke:#000000;stroke-width:0.26458332px;stroke-linecap:butt;stroke-linejoin:miter;stroke-opacity:1" />
      <text
         id="text7758"
         y="177.74162"
         x="-156.92839"
         style="font-style:normal;font-weight:normal;font-size:3.42338204px;line-height:1.25;font-family:sans-serif;letter-spacing:0px;word-spacing:0px;fill:#000000;fill-opacity:1;stroke:none;stroke-width:0.08558454"
         xml:space="preserve"><tspan
           style="stroke-width:0.08558454"
           y="177.74162"
           x="-156.92839"
           id="tspan7756"
           sodipodi:role="line">Alucra</tspan></text>
    </g>
  </g>
</svg>
